pose19.1
version=1
nRows=3
nColumns=213
inDegrees=yes
endheader
time	platform_rx	platform_ry	platform_rz	platform_ty	pelvis_tilt	pelvis_list	pelvis_rotation	pelvis_tx	pelvis_ty	pelvis_tz	hip_flexion_r	hip_adduction_r	hip_rotation_r	knee_angle_r	knee_angle_r_beta	ankle_angle_r	subtalar_angle_r	mtp_angle_r	hip_flexion_l	hip_adduction_l	hip_rotation_l	knee_angle_l	knee_angle_l_beta	ankle_angle_l	subtalar_angle_l	mtp_angle_l	lumbar_extension	lumbar_bending	lumbar_rotation	arm_flex_r	arm_add_r	arm_rot_r	elbow_flex_r	pro_sup_r	wrist_flex_r	wrist_dev_r	arm_flex_l	arm_add_l	arm_rot_l	elbow_flex_l	pro_sup_l	wrist_flex_l	wrist_dev_l	platform_rx_u	platform_ry_u	platform_rz_u	platform_ty_u	pelvis_tilt_u	pelvis_list_u	pelvis_rotation_u	pelvis_tx_u	pelvis_ty_u	pelvis_tz_u	hip_flexion_r_u	hip_adduction_r_u	hip_rotation_r_u	knee_angle_r_u	knee_angle_r_beta_u	ankle_angle_r_u	subtalar_angle_r_u	mtp_angle_r_u	hip_flexion_l_u	hip_adduction_l_u	hip_rotation_l_u	knee_angle_l_u	knee_angle_l_beta_u	ankle_angle_l_u	subtalar_angle_l_u	mtp_angle_l_u	lumbar_extension_u	lumbar_bending_u	lumbar_rotation_u	arm_flex_r_u	arm_add_r_u	arm_rot_r_u	elbow_flex_r_u	pro_sup_r_u	wrist_flex_r_u	wrist_dev_r_u	arm_flex_l_u	arm_add_l_u	arm_rot_l_u	elbow_flex_l_u	pro_sup_l_u	wrist_flex_l_u	wrist_dev_l_u	addbrev_r.activation	addlong_r.activation	addlong_r.fiber_length	addmagDist_r.activation	addmagIsch_r.activation	addmagIsch_r.fiber_length	addmagMid_r.activation	addmagProx_r.activation	bflh_r.activation	bflh_r.fiber_length	bfsh_r.activation	edl_r.activation	edl_r.fiber_length	ehl_r.activation	ehl_r.fiber_length	fdl_r.activation	fdl_r.fiber_length	fhl_r.activation	fhl_r.fiber_length	gaslat_r.activation	gaslat_r.fiber_length	gasmed_r.activation	gasmed_r.fiber_length	glmax1_r.activation	glmax2_r.activation	glmax3_r.activation	glmed1_r.activation	glmed2_r.activation	glmed3_r.activation	glmin1_r.activation	glmin2_r.activation	glmin3_r.activation	glmin3_r.fiber_length	grac_r.activation	iliacus_r.activation	perbrev_r.activation	perbrev_r.fiber_length	perlong_r.activation	perlong_r.fiber_length	piri_r.activation	piri_r.fiber_length	psoas_r.activation	recfem_r.activation	recfem_r.fiber_length	sart_r.activation	semimem_r.activation	semimem_r.fiber_length	semiten_r.activation	semiten_r.fiber_length	soleus_r.activation	soleus_r.fiber_length	tfl_r.activation	tfl_r.fiber_length	tibant_r.activation	tibant_r.fiber_length	tibpost_r.activation	tibpost_r.fiber_length	vasint_r.activation	vasint_r.fiber_length	vaslat_r.activation	vaslat_r.fiber_length	vasmed_r.activation	vasmed_r.fiber_length	addbrev_l.activation	addlong_l.activation	addlong_l.fiber_length	addmagDist_l.activation	addmagIsch_l.activation	addmagIsch_l.fiber_length	addmagMid_l.activation	addmagProx_l.activation	bflh_l.activation	bflh_l.fiber_length	bfsh_l.activation	edl_l.activation	edl_l.fiber_length	ehl_l.activation	ehl_l.fiber_length	fdl_l.activation	fdl_l.fiber_length	fhl_l.activation	fhl_l.fiber_length	gaslat_l.activation	gaslat_l.fiber_length	gasmed_l.activation	gasmed_l.fiber_length	glmax1_l.activation	glmax2_l.activation	glmax3_l.activation	glmed1_l.activation	glmed2_l.activation	glmed3_l.activation	glmin1_l.activation	glmin2_l.activation	glmin3_l.activation	glmin3_l.fiber_length	grac_l.activation	iliacus_l.activation	perbrev_l.activation	perbrev_l.fiber_length	perlong_l.activation	perlong_l.fiber_length	piri_l.activation	piri_l.fiber_length	psoas_l.activation	recfem_l.activation	recfem_l.fiber_length	sart_l.activation	semimem_l.activation	semimem_l.fiber_length	semiten_l.activation	semiten_l.fiber_length	soleus_l.activation	soleus_l.fiber_length	tfl_l.activation	tfl_l.fiber_length	tibant_l.activation	tibant_l.fiber_length	tibpost_l.activation	tibpost_l.fiber_length	vasint_l.activation	vasint_l.fiber_length	vaslat_l.activation	vaslat_l.fiber_length	vasmed_l.activation	vasmed_l.fiber_length
      0.00000000	     20.00000000	      0.00000000	      0.00000000	      0.25000000	    -26.67999273	      0.00000000	      0.00000000	     -0.04500000	      0.56900000	      0.00000000	     99.99996872	    -18.06297358	     -1.10700000	    101.50199938	    101.50199938	     28.99998934	      0.00000000	      0.00000000	     99.99996672	    -18.06297024	     -1.10700000	    101.50201341	    101.50201341	     28.99996813	      0.00000000	      0.00000000	      0.00000000	      0.00000000	      0.00000000	     89.95202855	     -0.00002853	     89.83674098	      0.14692602	      0.14688710	      0.00000000	      0.00000000	     89.95210616	     -0.00002634	     89.82889297	      0.14692602	      0.14688710	      0.00000000	      0.00000000	      0.00000000	      0.00000000	      0.00000000	      0.00000000	      0.00000000	      0.00000000	      0.00000000	      0.00000000	      0.00000000	      0.00000000	      0.00000000	      0.00000000	      0.00000000	      0.00000000	      0.00000000	      0.00000000	      0.00000000	      0.00000000	      0.00000000	      0.00000000	      0.00000000	      0.00000000	      0.00000000	      0.00000000	      0.00000000	      0.00000000	      0.00000000	      0.00000000	      0.00000000	      0.00000000	      0.00000000	      0.00000000	      0.00000000	      0.00000000	      0.00000000	      0.00000000	      0.00000000	      0.00000000	      0.00000000	      0.00000000	      0.00000000	      0.00000000	      0.00000000	      0.01000000	      0.01000000	      0.10110565	      0.01000000	      0.01000000	      0.22264926	      0.01000000	      0.01000000	      0.01000000	      0.12274102	      0.01000000	      0.01000000	      0.05130779	      0.01000000	      0.05873186	      0.01000000	      0.04762824	      0.01000000	      0.05630402	      0.01000000	      0.05141832	      0.01000000	      0.03872196	      0.01000000	      0.01000000	      0.01000000	      0.01000000	      0.01000000	      0.01000000	      0.01000000	      0.01000000	      0.01000000	      0.04474444	      0.01000000	      0.01000000	      0.01000000	      0.05077991	      0.01000000	      0.05747969	      0.01000000	      0.03309946	      0.01000000	      0.01000000	      0.05141807	      0.01000000	      0.01000000	      0.07817864	      0.01000000	      0.23010230	      0.01000000	      0.06129983	      0.01000000	      0.02401565	      0.01000000	      0.04487335	      0.01000000	      0.04205537	      0.01000000	      0.13779929	      0.01000000	      0.13426940	      0.01000000	      0.13172162	      0.01000000	      0.01000000	      0.10110565	      0.01000000	      0.01000000	      0.22264926	      0.01000000	      0.01000000	      0.01000000	      0.12274102	      0.01000000	      0.01000000	      0.05130780	      0.01000000	      0.05873187	      0.01000000	      0.04762824	      0.01000000	      0.05630401	      0.01000000	      0.05141830	      0.01000000	      0.03872195	      0.01000000	      0.01000000	      0.01000000	      0.01000000	      0.01000000	      0.01000000	      0.01000000	      0.01000000	      0.01000000	      0.04474444	      0.01000000	      0.01000000	      0.01000000	      0.05077991	      0.01000000	      0.05747968	      0.01000000	      0.03309946	      0.01000000	      0.01000000	      0.05141807	      0.01000000	      0.01000000	      0.07817863	      0.01000000	      0.23010229	      0.01000000	      0.06129982	      0.01000000	      0.02401565	      0.01000000	      0.04487337	      0.01000000	      0.04205537	      0.01000000	      0.13779929	      0.01000000	      0.13426941	      0.01000000	      0.13172162
      0.00071841	     20.00000000	      0.00000000	     -0.00000000	      0.25000000	    -26.67280200	     -0.00000000	     -0.00000000	     -0.04499873	      0.56901011	     -0.00000000	     99.99265569	    -18.06345509	     -1.10569294	    101.50139026	    101.50139026	     28.95347554	     -0.00000000	      0.00000000	     99.99265368	    -18.06345175	     -1.10569295	    101.50140429	    101.50140429	     28.95345436	      0.00000000	     -0.00000000	     -0.00903352	      0.00000000	      0.00000000	     89.95400924	     -0.00011897	     89.83668142	      0.14717905	      0.14692521	     -0.00000000	      0.00000000	     89.95408683	     -0.00011677	     89.82883341	      0.14717901	      0.14692522	      0.00000000	      0.00000000	     -0.00000000	      0.00000000	     -0.00000000	     -0.00000000	     20.01333663	     -0.00000134	     -0.00000051	      0.00352644	      0.02815172	     -0.00000000	    -20.36035695	     -1.33996896	      3.63192391	     -1.70608156	     -1.70608156	   -129.30484961	     -0.00000000	      0.00000000	    -20.36035816	     -1.33996833	      3.63192495	     -1.70608883	     -1.70608883	   -129.30476953	      0.00000000	     -0.00000000	    -25.14220720	      0.00000190	      0.00000018	      5.51230969	     -0.25165188	     -0.16568355	      0.70408651	      0.10577391	     -0.00000000	      0.00000000	      5.51226520	     -0.25162159	     -0.16568776	      0.70398361	      0.10579105	      0.00000000	      0.00000000	      0.01000000	      0.01000000	      0.10110518	      0.01000000	      0.01000000	      0.22264640	      0.01000000	      0.01000000	      0.01000000	      0.12274044	      0.01000000	      0.01000000	      0.05130985	      0.01000000	      0.05873453	      0.01000000	      0.04762814	      0.01000000	      0.05630364	      0.01000000	      0.05141680	      0.01000000	      0.03872066	      0.01000000	      0.01000000	      0.01000000	      0.01000000	      0.01000000	      0.01000000	      0.01000000	      0.01000000	      0.01000000	      0.04474387	      0.01000000	      0.01000000	      0.01000000	      0.05077954	      0.01000000	      0.05747933	      0.01000000	      0.03309915	      0.01000000	      0.01000000	      0.05141833	      0.01000000	      0.01000000	      0.07817836	      0.01000000	      0.23010097	      0.01000000	      0.06129607	      0.01000000	      0.02401564	      0.01000000	      0.04487737	      0.01000000	      0.04205517	      0.01000000	      0.13779921	      0.01000000	      0.13426934	      0.01000000	      0.13172156	      0.01000000	      0.01000000	      0.10110518	      0.01000000	      0.01000000	      0.22264640	      0.01000000	      0.01000000	      0.01000000	      0.12274044	      0.01000000	      0.01000000	      0.05130986	      0.01000000	      0.05873455	      0.01000000	      0.04762814	      0.01000000	      0.05630364	      0.01000000	      0.05141679	      0.01000000	      0.03872064	      0.01000000	      0.01000000	      0.01000000	      0.01000000	      0.01000000	      0.01000000	      0.01000000	      0.01000000	      0.01000000	      0.04474387	      0.01000000	      0.01000000	      0.01000000	      0.05077954	      0.01000000	      0.05747933	      0.01000000	      0.03309915	      0.01000000	      0.01000000	      0.05141833	      0.01000000	      0.01000000	      0.07817835	      0.01000000	      0.23010096	      0.01000000	      0.06129607	      0.01000000	      0.02401564	      0.01000000	      0.04487739	      0.01000000	      0.04205517	      0.01000000	      0.13779921	      0.01000000	      0.13426934	      0.01000000	      0.13172156
      0.00143683	     20.00000000	     -0.00000000	     -0.00000000	      0.25000000	    -26.65124416	     -0.00000000	     -0.00000000	     -0.04499493	      0.56904045	     -0.00000000	     99.97070362	    -18.06489728	     -1.10179803	    101.49951993	    101.49951993	     28.81468012	     -0.00000000	     -0.00000000	     99.97070161	    -18.06489394	     -1.10179803	    101.49953395	    101.49953395	     28.81465902	      0.00000000	     -0.00000000	     -0.03611586	      0.00000000	      0.00000000	     89.95994579	     -0.00038989	     89.83650320	      0.14793703	      0.14703838	      0.00000000	      0.00000000	     89.96002334	     -0.00038766	     89.82865519	      0.14793688	      0.14703841	      0.00000000	      0.00000000	     -0.00000000	     -0.00000000	     -0.00000000	     -0.00000000	     39.99632862	     -0.00000266	     -0.00000103	      0.00704967	      0.05630594	     -0.00000001	    -40.76342192	     -2.67346518	      7.19623731	     -3.52836754	     -3.52836754	   -256.65530424	     -0.00000000	     -0.00000000	    -40.76342436	     -2.67346394	      7.19623936	     -3.52838192	     -3.52838192	   -256.65514418	      0.00000000	     -0.00000000	    -50.24563490	      0.00000379	      0.00000037	     11.01216857	     -0.50237877	     -0.33022555	      1.40553683	      0.20870601	      0.00000000	      0.00000000	     11.01207979	     -0.50231856	     -0.33023393	      1.40533217	      0.20874010	      0.00000000	      0.00000000	      0.01000000	      0.01000000	      0.10110252	      0.01000000	      0.01000000	      0.22263706	      0.01000000	      0.01000000	      0.01000000	      0.12273705	      0.01000000	      0.01000000	      0.05132645	      0.01000000	      0.05875726	      0.01000000	      0.04762747	      0.01000000	      0.05630118	      0.01000000	      0.05140670	      0.01000000	      0.03871189	      0.01000000	      0.01000000	      0.01000000	      0.01000000	      0.01000000	      0.01000000	      0.01000000	      0.01000000	      0.01000000	      0.04474080	      0.01000000	      0.01000000	      0.01000000	      0.05077729	      0.01000000	      0.05747699	      0.01000000	      0.03309730	      0.01000000	      0.01000000	      0.05142004	      0.01000000	      0.01000000	      0.07817658	      0.01000000	      0.23009408	      0.01000000	      0.06127241	      0.01000000	      0.02401564	      0.01000000	      0.04491552	      0.01000000	      0.04205385	      0.01000000	      0.13779885	      0.01000000	      0.13426902	      0.01000000	      0.13172126	      0.01000000	      0.01000000	      0.10110251	      0.01000000	      0.01000000	      0.22263706	      0.01000000	      0.01000000	      0.01000000	      0.12273704	      0.01000000	      0.01000000	      0.05132646	      0.01000000	      0.05875728	      0.01000000	      0.04762747	      0.01000000	      0.05630117	      0.01000000	      0.05140668	      0.01000000	      0.03871187	      0.01000000	      0.01000000	      0.01000000	      0.01000000	      0.01000000	      0.01000000	      0.01000000	      0.01000000	      0.01000000	      0.04474080	      0.01000000	      0.01000000	      0.01000000	      0.05077729	      0.01000000	      0.05747699	      0.01000000	      0.03309730	      0.01000000	      0.01000000	      0.05142004	      0.01000000	      0.01000000	      0.07817657	      0.01000000	      0.23009407	      0.01000000	      0.06127241	      0.01000000	      0.02401564	      0.01000000	      0.04491553	      0.01000000	      0.04205385	      0.01000000	      0.13779886	      0.01000000	      0.13426903	      0.01000000	      0.13172126
